<?xml version="1.0" encoding="us-ascii" standalone="no"?><svg xmlns="http://www.w3.org/2000/svg" xmlns:xlink="http://www.w3.org/1999/xlink" contentStyleType="text/css" height="1452px" preserveAspectRatio="none" style="width:1092px;height:1452px;background:#FFFFFF;" version="1.1" viewBox="0 0 1092 1452" width="1092px" zoomAndPan="magnify"><defs/><g><rect fill="#FFFFFF" height="1326.4688" style="stroke:#181818;stroke-width:1.0;" width="10" x="61.5" y="81.4297"/><rect fill="#FFFFFF" height="29.1328" style="stroke:#181818;stroke-width:1.0;" width="10" x="66.5" y="624.2969"/><rect fill="#FFFFFF" height="29.1328" style="stroke:#181818;stroke-width:1.0;" width="10" x="66.5" y="764.9609"/><rect fill="#FFFFFF" height="14" style="stroke:#181818;stroke-width:1.0;" width="10" x="348.5" y="67.4297"/><rect fill="#FFFFFF" height="29.1328" style="stroke:#181818;stroke-width:1.0;" width="10" x="348.5" y="134.6953"/><rect fill="#FFFFFF" height="29.1328" style="stroke:#181818;stroke-width:1.0;" width="10" x="348.5" y="207.7656"/><rect fill="#FFFFFF" height="29.1328" style="stroke:#181818;stroke-width:1.0;" width="10" x="348.5" y="280.8359"/><rect fill="#FFFFFF" height="29.1328" style="stroke:#181818;stroke-width:1.0;" width="10" x="348.5" y="339.1016"/><rect fill="#FFFFFF" height="87.3984" style="stroke:#181818;stroke-width:1.0;" width="10" x="348.5" y="595.1641"/><rect fill="#FFFFFF" height="87.3984" style="stroke:#181818;stroke-width:1.0;" width="10" x="348.5" y="735.8281"/><rect fill="#FFFFFF" height="29.1328" style="stroke:#181818;stroke-width:1.0;" width="10" x="348.5" y="1369.7656"/><rect fill="#FFFFFF" height="656.0703" style="stroke:#181818;stroke-width:1.0;" width="10" x="727.5" y="475.6328"/><rect fill="#FFFFFF" height="187.7969" style="stroke:#181818;stroke-width:1.0;" width="10" x="892.5" y="1152.8359"/><rect fill="#FFFFFF" height="67.2656" style="stroke:#181818;stroke-width:1.0;" width="10" x="1051.5" y="1340.6328"/><rect fill="none" height="279.8047" style="stroke:#000000;stroke-width:1.5;" width="747.5" x="30" y="96.4297"/><rect fill="none" height="591.9375" style="stroke:#000000;stroke-width:1.5;" width="797.5" x="10" y="532.7656"/><rect fill="none" height="560.8047" style="stroke:#000000;stroke-width:1.5;" width="777.5" x="20" y="556.8984"/><rect fill="none" height="237.8672" style="stroke:#000000;stroke-width:1.5;" width="757.5" x="30" y="697.5625"/><rect fill="none" height="46.2656" style="stroke:#000000;stroke-width:1.5;" width="466.5" x="311" y="882.1641"/><line style="stroke:#181818;stroke-width:0.5;stroke-dasharray:5.0,5.0;" x1="66" x2="66" y1="36.2969" y2="1416.8984"/><line style="stroke:#181818;stroke-width:0.5;stroke-dasharray:5.0,5.0;" x1="353" x2="353" y1="36.2969" y2="1416.8984"/><line style="stroke:#181818;stroke-width:0.5;stroke-dasharray:5.0,5.0;" x1="732.5" x2="732.5" y1="36.2969" y2="1416.8984"/><line style="stroke:#181818;stroke-width:0.5;stroke-dasharray:5.0,5.0;" x1="897" x2="897" y1="36.2969" y2="1416.8984"/><line style="stroke:#181818;stroke-width:0.5;stroke-dasharray:5.0,5.0;" x1="1056" x2="1056" y1="36.2969" y2="1416.8984"/><rect fill="#E2E2F0" height="30.2969" rx="2.5" ry="2.5" style="stroke:#181818;stroke-width:0.5;" width="53" x="40" y="5"/><text fill="#000000" font-family="sans-serif" font-size="14" lengthAdjust="spacing" textLength="39" x="47" y="24.9951">Client</text><rect fill="#E2E2F0" height="30.2969" rx="2.5" ry="2.5" style="stroke:#181818;stroke-width:0.5;" width="53" x="40" y="1415.8984"/><text fill="#000000" font-family="sans-serif" font-size="14" lengthAdjust="spacing" textLength="39" x="47" y="1435.8936">Client</text><rect fill="#E2E2F0" height="30.2969" rx="2.5" ry="2.5" style="stroke:#181818;stroke-width:0.5;" width="65" x="321" y="5"/><text fill="#000000" font-family="sans-serif" font-size="14" lengthAdjust="spacing" textLength="51" x="328" y="24.9951">System</text><rect fill="#E2E2F0" height="30.2969" rx="2.5" ry="2.5" style="stroke:#181818;stroke-width:0.5;" width="65" x="321" y="1415.8984"/><text fill="#000000" font-family="sans-serif" font-size="14" lengthAdjust="spacing" textLength="51" x="328" y="1435.8936">System</text><rect fill="#E2E2F0" height="30.2969" rx="2.5" ry="2.5" style="stroke:#181818;stroke-width:0.5;" width="70" x="697.5" y="5"/><text fill="#000000" font-family="sans-serif" font-size="14" lengthAdjust="spacing" textLength="56" x="704.5" y="24.9951">Supplier</text><rect fill="#E2E2F0" height="30.2969" rx="2.5" ry="2.5" style="stroke:#181818;stroke-width:0.5;" width="70" x="697.5" y="1415.8984"/><text fill="#000000" font-family="sans-serif" font-size="14" lengthAdjust="spacing" textLength="56" x="704.5" y="1435.8936">Supplier</text><rect fill="#E2E2F0" height="30.2969" rx="2.5" ry="2.5" style="stroke:#181818;stroke-width:0.5;" width="77" x="859" y="5"/><text fill="#000000" font-family="sans-serif" font-size="14" lengthAdjust="spacing" textLength="63" x="866" y="24.9951">Arbitrator</text><rect fill="#E2E2F0" height="30.2969" rx="2.5" ry="2.5" style="stroke:#181818;stroke-width:0.5;" width="77" x="859" y="1415.8984"/><text fill="#000000" font-family="sans-serif" font-size="14" lengthAdjust="spacing" textLength="63" x="866" y="1435.8936">Arbitrator</text><rect fill="#E2E2F0" height="30.2969" rx="2.5" ry="2.5" style="stroke:#181818;stroke-width:0.5;" width="59" x="1027" y="5"/><text fill="#000000" font-family="sans-serif" font-size="14" lengthAdjust="spacing" textLength="45" x="1034" y="24.9951">Patron</text><rect fill="#E2E2F0" height="30.2969" rx="2.5" ry="2.5" style="stroke:#181818;stroke-width:0.5;" width="59" x="1027" y="1415.8984"/><text fill="#000000" font-family="sans-serif" font-size="14" lengthAdjust="spacing" textLength="45" x="1034" y="1435.8936">Patron</text><rect fill="#FFFFFF" height="1326.4688" style="stroke:#181818;stroke-width:1.0;" width="10" x="61.5" y="81.4297"/><rect fill="#FFFFFF" height="29.1328" style="stroke:#181818;stroke-width:1.0;" width="10" x="66.5" y="624.2969"/><rect fill="#FFFFFF" height="29.1328" style="stroke:#181818;stroke-width:1.0;" width="10" x="66.5" y="764.9609"/><rect fill="#FFFFFF" height="14" style="stroke:#181818;stroke-width:1.0;" width="10" x="348.5" y="67.4297"/><rect fill="#FFFFFF" height="29.1328" style="stroke:#181818;stroke-width:1.0;" width="10" x="348.5" y="134.6953"/><rect fill="#FFFFFF" height="29.1328" style="stroke:#181818;stroke-width:1.0;" width="10" x="348.5" y="207.7656"/><rect fill="#FFFFFF" height="29.1328" style="stroke:#181818;stroke-width:1.0;" width="10" x="348.5" y="280.8359"/><rect fill="#FFFFFF" height="29.1328" style="stroke:#181818;stroke-width:1.0;" width="10" x="348.5" y="339.1016"/><rect fill="#FFFFFF" height="87.3984" style="stroke:#181818;stroke-width:1.0;" width="10" x="348.5" y="595.1641"/><rect fill="#FFFFFF" height="87.3984" style="stroke:#181818;stroke-width:1.0;" width="10" x="348.5" y="735.8281"/><rect fill="#FFFFFF" height="29.1328" style="stroke:#181818;stroke-width:1.0;" width="10" x="348.5" y="1369.7656"/><rect fill="#FFFFFF" height="656.0703" style="stroke:#181818;stroke-width:1.0;" width="10" x="727.5" y="475.6328"/><rect fill="#FFFFFF" height="187.7969" style="stroke:#181818;stroke-width:1.0;" width="10" x="892.5" y="1152.8359"/><rect fill="#FFFFFF" height="67.2656" style="stroke:#181818;stroke-width:1.0;" width="10" x="1051.5" y="1340.6328"/><polygon fill="#181818" points="369.5,63.4297,359.5,67.4297,369.5,71.4297,365.5,67.4297" style="stroke:#181818;stroke-width:1.0;"/><line style="stroke:#181818;stroke-width:1.0;" x1="363.5" x2="731.5" y1="67.4297" y2="67.4297"/><text fill="#000000" font-family="sans-serif" font-size="13" lengthAdjust="spacing" textLength="101" x="375.5" y="62.3638">Spec &#12434;&#35352;&#36617;&#12377;&#12427;</text><polygon fill="#181818" points="720.5,77.4297,730.5,81.4297,720.5,85.4297,724.5,81.4297" style="stroke:#181818;stroke-width:1.0;"/><line style="stroke:#181818;stroke-width:1.0;stroke-dasharray:2.0,2.0;" x1="353.5" x2="726.5" y1="81.4297" y2="81.4297"/><path d="M30,96.4297 L94,96.4297 L94,103.5625 L84,113.5625 L30,113.5625 L30,96.4297 " fill="#EEEEEE" style="stroke:#000000;stroke-width:1.5;"/><rect fill="none" height="279.8047" style="stroke:#000000;stroke-width:1.5;" width="747.5" x="30" y="96.4297"/><text fill="#000000" font-family="sans-serif" font-size="13" font-weight="bold" lengthAdjust="spacing" textLength="19" x="45" y="109.4966">alt</text><text fill="#000000" font-family="sans-serif" font-size="11" font-weight="bold" lengthAdjust="spacing" textLength="77" x="109" y="108.6401">[&#29305;&#23450;&#12398; Task]</text><polygon fill="#181818" points="336.5,130.6953,346.5,134.6953,336.5,138.6953,340.5,134.6953" style="stroke:#181818;stroke-width:1.0;"/><line style="stroke:#181818;stroke-width:1.0;" x1="71.5" x2="342.5" y1="134.6953" y2="134.6953"/><text fill="#000000" font-family="sans-serif" font-size="13" font-weight="bold" lengthAdjust="spacing" textLength="39" x="78.5" y="129.6294">[010]</text><text fill="#000000" font-family="sans-serif" font-size="13" lengthAdjust="spacing" textLength="141" x="121.5" y="129.6294">&#29305;&#23450;&#12398; Task &#12434;&#20316;&#25104;&#12377;&#12427;</text><polygon fill="#181818" points="82.5,159.8281,72.5,163.8281,82.5,167.8281,78.5,163.8281" style="stroke:#181818;stroke-width:1.0;"/><line style="stroke:#181818;stroke-width:1.0;stroke-dasharray:2.0,2.0;" x1="76.5" x2="352.5" y1="163.8281" y2="163.8281"/><text fill="#000000" font-family="sans-serif" font-size="13" font-weight="bold" lengthAdjust="spacing" textLength="39" x="88.5" y="158.7622">[020]</text><text fill="#000000" font-family="sans-serif" font-size="13" lengthAdjust="spacing" textLength="4" x="131.5" y="158.7622">&#160;</text><line style="stroke:#000000;stroke-width:1.0;stroke-dasharray:2.0,2.0;" x1="30" x2="777.5" y1="172.8281" y2="172.8281"/><text fill="#000000" font-family="sans-serif" font-size="11" font-weight="bold" lengthAdjust="spacing" textLength="110" x="35" y="183.0386">[&#26178;&#38291;&#21336;&#20301;&#12391;&#12398; Task]</text><polygon fill="#181818" points="336.5,203.7656,346.5,207.7656,336.5,211.7656,340.5,207.7656" style="stroke:#181818;stroke-width:1.0;"/><line style="stroke:#181818;stroke-width:1.0;" x1="71.5" x2="342.5" y1="207.7656" y2="207.7656"/><text fill="#000000" font-family="sans-serif" font-size="13" font-weight="bold" lengthAdjust="spacing" textLength="39" x="78.5" y="202.6997">[030]</text><text fill="#000000" font-family="sans-serif" font-size="13" lengthAdjust="spacing" textLength="213" x="121.5" y="202.6997">&#26178;&#38291;&#21336;&#20301;&#12391;&#12398; Task &#12434;&#20381;&#38972;&#12377;&#12427;(Tier)</text><polygon fill="#181818" points="82.5,232.8984,72.5,236.8984,82.5,240.8984,78.5,236.8984" style="stroke:#181818;stroke-width:1.0;"/><line style="stroke:#181818;stroke-width:1.0;stroke-dasharray:2.0,2.0;" x1="76.5" x2="352.5" y1="236.8984" y2="236.8984"/><text fill="#000000" font-family="sans-serif" font-size="13" font-weight="bold" lengthAdjust="spacing" textLength="39" x="88.5" y="231.8325">[040]</text><text fill="#000000" font-family="sans-serif" font-size="13" lengthAdjust="spacing" textLength="4" x="131.5" y="231.8325">&#160;</text><line style="stroke:#000000;stroke-width:1.0;stroke-dasharray:2.0,2.0;" x1="30" x2="777.5" y1="245.8984" y2="245.8984"/><text fill="#000000" font-family="sans-serif" font-size="11" font-weight="bold" lengthAdjust="spacing" textLength="77" x="35" y="256.1089">[&#26326;&#26151;&#12394; Task]</text><polygon fill="#181818" points="336.5,276.8359,346.5,280.8359,336.5,284.8359,340.5,280.8359" style="stroke:#181818;stroke-width:1.0;"/><line style="stroke:#181818;stroke-width:1.0;" x1="71.5" x2="342.5" y1="280.8359" y2="280.8359"/><text fill="#000000" font-family="sans-serif" font-size="13" font-weight="bold" lengthAdjust="spacing" textLength="39" x="78.5" y="275.77">[050]</text><text fill="#000000" font-family="sans-serif" font-size="13" lengthAdjust="spacing" textLength="104" x="121.5" y="275.77">&#26326;&#26151;&#12394;&#20181;&#20107;&#12398;&#20381;&#38972;</text><polygon fill="#181818" points="82.5,305.9688,72.5,309.9688,82.5,313.9688,78.5,309.9688" style="stroke:#181818;stroke-width:1.0;"/><line style="stroke:#181818;stroke-width:1.0;stroke-dasharray:2.0,2.0;" x1="76.5" x2="352.5" y1="309.9688" y2="309.9688"/><text fill="#000000" font-family="sans-serif" font-size="13" font-weight="bold" lengthAdjust="spacing" textLength="39" x="88.5" y="304.9028">[060]</text><text fill="#000000" font-family="sans-serif" font-size="13" lengthAdjust="spacing" textLength="4" x="131.5" y="304.9028">&#160;</text><polygon fill="#181818" points="369.5,335.1016,359.5,339.1016,369.5,343.1016,365.5,339.1016" style="stroke:#181818;stroke-width:1.0;"/><line style="stroke:#181818;stroke-width:1.0;" x1="363.5" x2="731.5" y1="339.1016" y2="339.1016"/><text fill="#000000" font-family="sans-serif" font-size="13" font-weight="bold" lengthAdjust="spacing" textLength="39" x="375.5" y="334.0356">[070]</text><text fill="#000000" font-family="sans-serif" font-size="13" lengthAdjust="spacing" textLength="149" x="418.5" y="334.0356">Supplier&#12424;&#12426;&#33609;&#26696;&#25552;&#20986;(A)</text><polygon fill="#181818" points="720.5,364.2344,730.5,368.2344,720.5,372.2344,724.5,368.2344" style="stroke:#181818;stroke-width:1.0;"/><line style="stroke:#181818;stroke-width:1.0;stroke-dasharray:2.0,2.0;" x1="353.5" x2="726.5" y1="368.2344" y2="368.2344"/><text fill="#000000" font-family="sans-serif" font-size="13" font-weight="bold" lengthAdjust="spacing" textLength="39" x="360.5" y="363.1685">[080]</text><text fill="#000000" font-family="sans-serif" font-size="13" lengthAdjust="spacing" textLength="4" x="403.5" y="363.1685">&#160;</text><polygon fill="#181818" points="341.5,400.3672,351.5,404.3672,341.5,408.3672,345.5,404.3672" style="stroke:#181818;stroke-width:1.0;"/><line style="stroke:#181818;stroke-width:1.0;" x1="71.5" x2="347.5" y1="404.3672" y2="404.3672"/><text fill="#000000" font-family="sans-serif" font-size="13" font-weight="bold" lengthAdjust="spacing" textLength="39" x="78.5" y="399.3013">[090]</text><text fill="#000000" font-family="sans-serif" font-size="13" lengthAdjust="spacing" textLength="109" x="121.5" y="399.3013">&#36039;&#37329;&#12434; Pool&#12288;&#12377;&#12427;</text><line style="stroke:#181818;stroke-width:1.0;" x1="353.5" x2="395.5" y1="433.5" y2="433.5"/><line style="stroke:#181818;stroke-width:1.0;" x1="395.5" x2="395.5" y1="433.5" y2="446.5"/><line style="stroke:#181818;stroke-width:1.0;" x1="354.5" x2="395.5" y1="446.5" y2="446.5"/><polygon fill="#181818" points="364.5,442.5,354.5,446.5,364.5,450.5,360.5,446.5" style="stroke:#181818;stroke-width:1.0;"/><text fill="#000000" font-family="sans-serif" font-size="13" font-weight="bold" lengthAdjust="spacing" textLength="39" x="360.5" y="428.4341">[100]</text><text fill="#000000" font-family="sans-serif" font-size="13" lengthAdjust="spacing" textLength="111" x="403.5" y="428.4341">&#36039;&#37329;&#12434; Lock&#12288;&#12377;&#12427;</text><polygon fill="#181818" points="715.5,471.6328,725.5,475.6328,715.5,479.6328,719.5,475.6328" style="stroke:#181818;stroke-width:1.0;"/><line style="stroke:#181818;stroke-width:1.0;" x1="71.5" x2="721.5" y1="475.6328" y2="475.6328"/><text fill="#000000" font-family="sans-serif" font-size="13" font-weight="bold" lengthAdjust="spacing" textLength="39" x="78.5" y="470.5669">[110]</text><text fill="#000000" font-family="sans-serif" font-size="13" lengthAdjust="spacing" textLength="98" x="121.5" y="470.5669">Task &#12434;&#20381;&#38972;&#12377;&#12427;</text><line style="stroke:#181818;stroke-width:1.0;" x1="737.5" x2="779.5" y1="504.7656" y2="504.7656"/><line style="stroke:#181818;stroke-width:1.0;" x1="779.5" x2="779.5" y1="504.7656" y2="517.7656"/><line style="stroke:#181818;stroke-width:1.0;" x1="738.5" x2="779.5" y1="517.7656" y2="517.7656"/><polygon fill="#181818" points="748.5,513.7656,738.5,517.7656,748.5,521.7656,744.5,517.7656" style="stroke:#181818;stroke-width:1.0;"/><text fill="#000000" font-family="sans-serif" font-size="13" font-weight="bold" lengthAdjust="spacing" textLength="39" x="744.5" y="499.6997">[120]</text><text fill="#000000" font-family="sans-serif" font-size="13" lengthAdjust="spacing" textLength="98" x="787.5" y="499.6997">Task &#12434;&#20966;&#29702;&#12377;&#12427;</text><path d="M10,532.7656 L87,532.7656 L87,539.8984 L77,549.8984 L10,549.8984 L10,532.7656 " fill="#EEEEEE" style="stroke:#000000;stroke-width:1.5;"/><rect fill="none" height="591.9375" style="stroke:#000000;stroke-width:1.5;" width="797.5" x="10" y="532.7656"/><text fill="#000000" font-family="sans-serif" font-size="13" font-weight="bold" lengthAdjust="spacing" textLength="32" x="25" y="545.8325">loop</text><path d="M20,556.8984 L84,556.8984 L84,564.0313 L74,574.0313 L20,574.0313 L20,556.8984 " fill="#EEEEEE" style="stroke:#000000;stroke-width:1.5;"/><rect fill="none" height="560.8047" style="stroke:#000000;stroke-width:1.5;" width="777.5" x="20" y="556.8984"/><text fill="#000000" font-family="sans-serif" font-size="13" font-weight="bold" lengthAdjust="spacing" textLength="19" x="35" y="569.9653">alt</text><text fill="#000000" font-family="sans-serif" font-size="11" font-weight="bold" lengthAdjust="spacing" textLength="99" x="99" y="569.1089">[Task &#12434;&#23436;&#20102;&#12375;&#12383;]</text><polygon fill="#181818" points="369.5,591.1641,359.5,595.1641,369.5,599.1641,365.5,595.1641" style="stroke:#181818;stroke-width:1.0;"/><line style="stroke:#181818;stroke-width:1.0;" x1="363.5" x2="726.5" y1="595.1641" y2="595.1641"/><text fill="#000000" font-family="sans-serif" font-size="13" font-weight="bold" lengthAdjust="spacing" textLength="39" x="375.5" y="590.0981">[130]</text><text fill="#000000" font-family="sans-serif" font-size="13" lengthAdjust="spacing" textLength="163" x="418.5" y="590.0981">Task &#12398;&#20966;&#29702;&#32080;&#26524;&#12434;&#25552;&#20986;&#12377;&#12427;</text><polygon fill="#181818" points="87.5,620.2969,77.5,624.2969,87.5,628.2969,83.5,624.2969" style="stroke:#181818;stroke-width:1.0;"/><line style="stroke:#181818;stroke-width:1.0;" x1="81.5" x2="347.5" y1="624.2969" y2="624.2969"/><text fill="#000000" font-family="sans-serif" font-size="13" font-weight="bold" lengthAdjust="spacing" textLength="39" x="93.5" y="619.231">[140]</text><text fill="#000000" font-family="sans-serif" font-size="13" lengthAdjust="spacing" textLength="163" x="136.5" y="619.231">Task &#12398;&#20966;&#29702;&#32080;&#26524;&#12434;&#25552;&#20986;&#12377;&#12427;</text><polygon fill="#181818" points="336.5,649.4297,346.5,653.4297,336.5,657.4297,340.5,653.4297" style="stroke:#181818;stroke-width:1.0;"/><line style="stroke:#181818;stroke-width:1.0;stroke-dasharray:2.0,2.0;" x1="71.5" x2="342.5" y1="653.4297" y2="653.4297"/><text fill="#000000" font-family="sans-serif" font-size="13" font-weight="bold" lengthAdjust="spacing" textLength="39" x="78.5" y="648.3638">[150]</text><text fill="#000000" font-family="sans-serif" font-size="13" lengthAdjust="spacing" textLength="4" x="121.5" y="648.3638">&#160;</text><polygon fill="#181818" points="715.5,678.5625,725.5,682.5625,715.5,686.5625,719.5,682.5625" style="stroke:#181818;stroke-width:1.0;"/><line style="stroke:#181818;stroke-width:1.0;stroke-dasharray:2.0,2.0;" x1="353.5" x2="721.5" y1="682.5625" y2="682.5625"/><text fill="#000000" font-family="sans-serif" font-size="13" font-weight="bold" lengthAdjust="spacing" textLength="39" x="360.5" y="677.4966">[160]</text><text fill="#000000" font-family="sans-serif" font-size="13" lengthAdjust="spacing" textLength="203" x="403.5" y="677.4966">Pool &#12375;&#12390;&#12356;&#12383;client &#12398;&#36039;&#37329;&#12434; &#36865;&#37329;</text><path d="M30,697.5625 L94,697.5625 L94,704.6953 L84,714.6953 L30,714.6953 L30,697.5625 " fill="#EEEEEE" style="stroke:#000000;stroke-width:1.5;"/><rect fill="none" height="237.8672" style="stroke:#000000;stroke-width:1.5;" width="757.5" x="30" y="697.5625"/><text fill="#000000" font-family="sans-serif" font-size="13" font-weight="bold" lengthAdjust="spacing" textLength="19" x="45" y="710.6294">alt</text><text fill="#000000" font-family="sans-serif" font-size="11" font-weight="bold" lengthAdjust="spacing" textLength="165" x="109" y="709.7729">[client &#12364; Task &#12434;&#23436;&#20102;&#12392;&#12375;&#12383;]</text><polygon fill="#181818" points="369.5,731.8281,359.5,735.8281,369.5,739.8281,365.5,735.8281" style="stroke:#181818;stroke-width:1.0;"/><line style="stroke:#181818;stroke-width:1.0;" x1="363.5" x2="726.5" y1="735.8281" y2="735.8281"/><text fill="#000000" font-family="sans-serif" font-size="13" font-weight="bold" lengthAdjust="spacing" textLength="39" x="375.5" y="730.7622">[170]</text><text fill="#000000" font-family="sans-serif" font-size="13" lengthAdjust="spacing" textLength="163" x="418.5" y="730.7622">Task &#12398;&#20966;&#29702;&#32080;&#26524;&#12434;&#25552;&#20986;&#12377;&#12427;</text><polygon fill="#181818" points="87.5,760.9609,77.5,764.9609,87.5,768.9609,83.5,764.9609" style="stroke:#181818;stroke-width:1.0;"/><line style="stroke:#181818;stroke-width:1.0;" x1="81.5" x2="347.5" y1="764.9609" y2="764.9609"/><text fill="#000000" font-family="sans-serif" font-size="13" font-weight="bold" lengthAdjust="spacing" textLength="39" x="93.5" y="759.895">[180]</text><text fill="#000000" font-family="sans-serif" font-size="13" lengthAdjust="spacing" textLength="163" x="136.5" y="759.895">Task &#12398;&#20966;&#29702;&#32080;&#26524;&#12434;&#25552;&#20986;&#12377;&#12427;</text><polygon fill="#181818" points="336.5,790.0938,346.5,794.0938,336.5,798.0938,340.5,794.0938" style="stroke:#181818;stroke-width:1.0;"/><line style="stroke:#181818;stroke-width:1.0;stroke-dasharray:2.0,2.0;" x1="71.5" x2="342.5" y1="794.0938" y2="794.0938"/><text fill="#000000" font-family="sans-serif" font-size="13" font-weight="bold" lengthAdjust="spacing" textLength="39" x="78.5" y="789.0278">[190]</text><text fill="#000000" font-family="sans-serif" font-size="13" lengthAdjust="spacing" textLength="4" x="121.5" y="789.0278">&#160;</text><polygon fill="#181818" points="715.5,819.2266,725.5,823.2266,715.5,827.2266,719.5,823.2266" style="stroke:#181818;stroke-width:1.0;"/><line style="stroke:#181818;stroke-width:1.0;stroke-dasharray:2.0,2.0;" x1="353.5" x2="721.5" y1="823.2266" y2="823.2266"/><text fill="#000000" font-family="sans-serif" font-size="13" font-weight="bold" lengthAdjust="spacing" textLength="39" x="360.5" y="818.1606">[200]</text><text fill="#000000" font-family="sans-serif" font-size="13" lengthAdjust="spacing" textLength="203" x="403.5" y="818.1606">Pool &#12375;&#12390;&#12356;&#12383;client &#12398;&#36039;&#37329;&#12434; &#36865;&#37329;</text><line style="stroke:#000000;stroke-width:1.0;stroke-dasharray:2.0,2.0;" x1="30" x2="787.5" y1="832.2266" y2="832.2266"/><text fill="#000000" font-family="sans-serif" font-size="11" font-weight="bold" lengthAdjust="spacing" textLength="176" x="35" y="842.437">[client &#12364; Task &#12434;&#26410;&#23436;&#20102;&#12392;&#12375;&#12383;]</text><polygon fill="#181818" points="82.5,863.1641,72.5,867.1641,82.5,871.1641,78.5,867.1641" style="stroke:#181818;stroke-width:1.0;"/><line style="stroke:#181818;stroke-width:1.0;" x1="76.5" x2="726.5" y1="867.1641" y2="867.1641"/><text fill="#000000" font-family="sans-serif" font-size="13" font-weight="bold" lengthAdjust="spacing" textLength="39" x="88.5" y="862.0981">[210]</text><text fill="#000000" font-family="sans-serif" font-size="13" lengthAdjust="spacing" textLength="241" x="131.5" y="862.0981">Task &#12434;&#26410;&#23436;&#20102;&#37096;&#20998;&#12398;&#20966;&#29702;&#32080;&#26524;&#12434;&#25552;&#20986;&#12377;&#12427;</text><path d="M311,882.1641 L375,882.1641 L375,889.2969 L365,899.2969 L311,899.2969 L311,882.1641 " fill="#EEEEEE" style="stroke:#000000;stroke-width:1.5;"/><rect fill="none" height="46.2656" style="stroke:#000000;stroke-width:1.5;" width="466.5" x="311" y="882.1641"/><text fill="#000000" font-family="sans-serif" font-size="13" font-weight="bold" lengthAdjust="spacing" textLength="19" x="326" y="895.231">alt</text><text fill="#000000" font-family="sans-serif" font-size="11" font-weight="bold" lengthAdjust="spacing" textLength="191" x="390" y="894.3745">[&#36884;&#20013;&#12391;&#35211;&#31309;&#12418;&#12426;&#20197;&#19978;&#12398; Task &#12434;&#12375;&#12383;]</text><polygon fill="#181818" points="364.5,916.4297,354.5,920.4297,364.5,924.4297,360.5,920.4297" style="stroke:#181818;stroke-width:1.0;"/><line style="stroke:#181818;stroke-width:1.0;" x1="358.5" x2="726.5" y1="920.4297" y2="920.4297"/><text fill="#000000" font-family="sans-serif" font-size="13" font-weight="bold" lengthAdjust="spacing" textLength="39" x="370.5" y="915.3638">[220]</text><text fill="#000000" font-family="sans-serif" font-size="13" lengthAdjust="spacing" textLength="307" x="413.5" y="915.3638">&#36884;&#20013;&#12391;&#35211;&#31309;&#12418;&#12426;&#20197;&#19978;&#12398; Task &#12434;&#12375;&#12383;&#12398;&#12391;Dispute&#12377;&#12427;</text><line style="stroke:#000000;stroke-width:1.0;stroke-dasharray:2.0,2.0;" x1="20" x2="797.5" y1="943.4297" y2="943.4297"/><text fill="#000000" font-family="sans-serif" font-size="11" font-weight="bold" lengthAdjust="spacing" textLength="132" x="25" y="953.6401">[Task &#12434;&#36884;&#20013;&#12391;&#26029;&#24565;&#12375;&#12383;]</text><polygon fill="#181818" points="364.5,974.3672,354.5,978.3672,364.5,982.3672,360.5,978.3672" style="stroke:#181818;stroke-width:1.0;"/><line style="stroke:#181818;stroke-width:1.0;" x1="358.5" x2="726.5" y1="978.3672" y2="978.3672"/><text fill="#000000" font-family="sans-serif" font-size="13" font-weight="bold" lengthAdjust="spacing" textLength="39" x="370.5" y="973.3013">[230]</text><text fill="#000000" font-family="sans-serif" font-size="13" lengthAdjust="spacing" textLength="215" x="413.5" y="973.3013">Task &#12434;&#36884;&#20013;&#12391;&#26029;&#24565;&#12375;&#12383;&#26088;&#12434;&#36899;&#32097;&#12377;&#12427;</text><polygon fill="#181818" points="82.5,1003.5,72.5,1007.5,82.5,1011.5,78.5,1007.5" style="stroke:#181818;stroke-width:1.0;"/><line style="stroke:#181818;stroke-width:1.0;" x1="76.5" x2="352.5" y1="1007.5" y2="1007.5"/><text fill="#000000" font-family="sans-serif" font-size="13" font-weight="bold" lengthAdjust="spacing" textLength="39" x="88.5" y="1002.4341">[240]</text><text fill="#000000" font-family="sans-serif" font-size="13" lengthAdjust="spacing" textLength="215" x="131.5" y="1002.4341">Task &#12434;&#36884;&#20013;&#12391;&#26029;&#24565;&#12375;&#12383;&#26088;&#12434;&#36899;&#32097;&#12377;&#12427;</text><line style="stroke:#000000;stroke-width:1.0;stroke-dasharray:2.0,2.0;" x1="20" x2="797.5" y1="1016.5" y2="1016.5"/><text fill="#000000" font-family="sans-serif" font-size="11" font-weight="bold" lengthAdjust="spacing" textLength="54" x="25" y="1026.7104">[&#26399;&#38480;&#20999;&#12428;]</text><polygon fill="#181818" points="715.5,1047.4375,725.5,1051.4375,715.5,1055.4375,719.5,1051.4375" style="stroke:#181818;stroke-width:1.0;"/><line style="stroke:#181818;stroke-width:1.0;" x1="353.5" x2="721.5" y1="1051.4375" y2="1051.4375"/><text fill="#000000" font-family="sans-serif" font-size="13" font-weight="bold" lengthAdjust="spacing" textLength="39" x="360.5" y="1046.3716">[250]</text><text fill="#000000" font-family="sans-serif" font-size="13" lengthAdjust="spacing" textLength="215" x="403.5" y="1046.3716">Task &#12364;&#26399;&#38480;&#20999;&#12428;&#12391;&#12354;&#12427;&#26088;&#12434;&#36899;&#32097;&#12377;&#12427;</text><polygon fill="#181818" points="82.5,1076.5703,72.5,1080.5703,82.5,1084.5703,78.5,1080.5703" style="stroke:#181818;stroke-width:1.0;"/><line style="stroke:#181818;stroke-width:1.0;" x1="76.5" x2="352.5" y1="1080.5703" y2="1080.5703"/><text fill="#000000" font-family="sans-serif" font-size="13" font-weight="bold" lengthAdjust="spacing" textLength="39" x="88.5" y="1075.5044">[260]</text><text fill="#000000" font-family="sans-serif" font-size="13" lengthAdjust="spacing" textLength="215" x="131.5" y="1075.5044">Task &#12364;&#26399;&#38480;&#20999;&#12428;&#12391;&#12354;&#12427;&#26088;&#12434;&#36899;&#32097;&#12377;&#12427;</text><polygon fill="#181818" points="82.5,1105.7031,72.5,1109.7031,82.5,1113.7031,78.5,1109.7031" style="stroke:#181818;stroke-width:1.0;"/><line style="stroke:#181818;stroke-width:1.0;" x1="76.5" x2="352.5" y1="1109.7031" y2="1109.7031"/><text fill="#000000" font-family="sans-serif" font-size="13" font-weight="bold" lengthAdjust="spacing" textLength="39" x="88.5" y="1104.6372">[270]</text><text fill="#000000" font-family="sans-serif" font-size="13" lengthAdjust="spacing" textLength="180" x="131.5" y="1104.6372">Lock &#12373;&#12428;&#12383;&#36039;&#37329; &#12364;&#36820;&#37329;&#12373;&#12428;&#12427;</text><polygon fill="#181818" points="880.5,1148.8359,890.5,1152.8359,880.5,1156.8359,884.5,1152.8359" style="stroke:#181818;stroke-width:1.0;"/><line style="stroke:#181818;stroke-width:1.0;" x1="353.5" x2="886.5" y1="1152.8359" y2="1152.8359"/><text fill="#000000" font-family="sans-serif" font-size="13" font-weight="bold" lengthAdjust="spacing" textLength="39" x="360.5" y="1147.77">[280]</text><text fill="#000000" font-family="sans-serif" font-size="13" lengthAdjust="spacing" textLength="157" x="403.5" y="1147.77">Dispute &#12398;&#26908;&#35388;&#12434;&#20381;&#38972;&#12377;&#12427;</text><line style="stroke:#181818;stroke-width:1.0;" x1="902.5" x2="944.5" y1="1181.9688" y2="1181.9688"/><line style="stroke:#181818;stroke-width:1.0;" x1="944.5" x2="944.5" y1="1181.9688" y2="1194.9688"/><line style="stroke:#181818;stroke-width:1.0;" x1="903.5" x2="944.5" y1="1194.9688" y2="1194.9688"/><polygon fill="#181818" points="913.5,1190.9688,903.5,1194.9688,913.5,1198.9688,909.5,1194.9688" style="stroke:#181818;stroke-width:1.0;"/><text fill="#000000" font-family="sans-serif" font-size="13" font-weight="bold" lengthAdjust="spacing" textLength="39" x="909.5" y="1176.9028">[290]</text><text fill="#000000" font-family="sans-serif" font-size="13" lengthAdjust="spacing" textLength="92" x="952.5" y="1176.9028">Dispute &#12434;&#26908;&#35388;</text><polygon fill="#181818" points="364.5,1220.1016,354.5,1224.1016,364.5,1228.1016,360.5,1224.1016" style="stroke:#181818;stroke-width:1.0;"/><line style="stroke:#181818;stroke-width:1.0;" x1="358.5" x2="891.5" y1="1224.1016" y2="1224.1016"/><text fill="#000000" font-family="sans-serif" font-size="13" font-weight="bold" lengthAdjust="spacing" textLength="39" x="370.5" y="1219.0356">[300]</text><text fill="#000000" font-family="sans-serif" font-size="13" lengthAdjust="spacing" textLength="235" x="413.5" y="1219.0356">Dispute &#12398;&#26908;&#35388;&#32080;&#26524;&#12392;&#36039;&#37329;&#37197;&#20998;&#12434;&#27770;&#12417;&#12427;</text><polygon fill="#181818" points="82.5,1249.2344,72.5,1253.2344,82.5,1257.2344,78.5,1253.2344" style="stroke:#181818;stroke-width:1.0;"/><line style="stroke:#181818;stroke-width:1.0;" x1="76.5" x2="352.5" y1="1253.2344" y2="1253.2344"/><text fill="#000000" font-family="sans-serif" font-size="13" font-weight="bold" lengthAdjust="spacing" textLength="39" x="88.5" y="1248.1685">[310]</text><text fill="#000000" font-family="sans-serif" font-size="13" lengthAdjust="spacing" textLength="169" x="131.5" y="1248.1685">&#37197;&#20998;&#12373;&#12428;&#12383;&#36039;&#37329;&#12364;&#36865;&#37329;&#12373;&#12428;&#12427;</text><polygon fill="#181818" points="720.5,1278.3672,730.5,1282.3672,720.5,1286.3672,724.5,1282.3672" style="stroke:#181818;stroke-width:1.0;"/><line style="stroke:#181818;stroke-width:1.0;" x1="353.5" x2="726.5" y1="1282.3672" y2="1282.3672"/><text fill="#000000" font-family="sans-serif" font-size="13" font-weight="bold" lengthAdjust="spacing" textLength="39" x="360.5" y="1277.3013">[320]</text><text fill="#000000" font-family="sans-serif" font-size="13" lengthAdjust="spacing" textLength="169" x="403.5" y="1277.3013">&#37197;&#20998;&#12373;&#12428;&#12383;&#36039;&#37329;&#12364;&#36865;&#37329;&#12373;&#12428;&#12427;</text><polygon fill="#181818" points="880.5,1307.5,890.5,1311.5,880.5,1315.5,884.5,1311.5" style="stroke:#181818;stroke-width:1.0;"/><line style="stroke:#181818;stroke-width:1.0;" x1="353.5" x2="886.5" y1="1311.5" y2="1311.5"/><text fill="#000000" font-family="sans-serif" font-size="13" font-weight="bold" lengthAdjust="spacing" textLength="39" x="360.5" y="1306.4341">[330]</text><text fill="#000000" font-family="sans-serif" font-size="13" lengthAdjust="spacing" textLength="65" x="403.5" y="1306.4341">&#22577;&#37228;&#12434;&#24471;&#12427;</text><polygon fill="#181818" points="364.5,1336.6328,354.5,1340.6328,364.5,1344.6328,360.5,1340.6328" style="stroke:#181818;stroke-width:1.0;"/><line style="stroke:#181818;stroke-width:1.0;stroke-dasharray:2.0,2.0;" x1="358.5" x2="896.5" y1="1340.6328" y2="1340.6328"/><text fill="#000000" font-family="sans-serif" font-size="13" font-weight="bold" lengthAdjust="spacing" textLength="39" x="370.5" y="1335.5669">[340]</text><text fill="#000000" font-family="sans-serif" font-size="13" lengthAdjust="spacing" textLength="4" x="413.5" y="1335.5669">&#160;</text><polygon fill="#181818" points="369.5,1365.7656,359.5,1369.7656,369.5,1373.7656,365.5,1369.7656" style="stroke:#181818;stroke-width:1.0;"/><line style="stroke:#181818;stroke-width:1.0;" x1="363.5" x2="1050.5" y1="1369.7656" y2="1369.7656"/><text fill="#000000" font-family="sans-serif" font-size="13" font-weight="bold" lengthAdjust="spacing" textLength="39" x="375.5" y="1364.6997">[350]</text><text fill="#000000" font-family="sans-serif" font-size="13" lengthAdjust="spacing" textLength="100" x="418.5" y="1364.6997">&#36039;&#37329;&#12434; Pool &#12377;&#12427;</text><polygon fill="#181818" points="1039.5,1394.8984,1049.5,1398.8984,1039.5,1402.8984,1043.5,1398.8984" style="stroke:#181818;stroke-width:1.0;"/><line style="stroke:#181818;stroke-width:1.0;stroke-dasharray:2.0,2.0;" x1="353.5" x2="1045.5" y1="1398.8984" y2="1398.8984"/><text fill="#000000" font-family="sans-serif" font-size="13" font-weight="bold" lengthAdjust="spacing" textLength="39" x="360.5" y="1393.8325">[360]</text><text fill="#000000" font-family="sans-serif" font-size="13" lengthAdjust="spacing" textLength="273" x="403.5" y="1393.8325">&#20309;&#12425;&#12363;&#12398;&#37197;&#20998;&#12395;&#12424;&#12387;&#12390;&#25237;&#36039;&#38989;&#12398;&#25968;&#65285;&#12434;&#24471;&#12425;&#12428;&#12427;</text><!--SRC=[fLPBRzD04BxxLwnwAWUaSArGfGgE72grDyJ1JNs8ciQMuo1nYmrjaYOH0Pe-8D1MXH8AZQXGfPAcxOzPsx5F_0Lc7tx5TcY85CaJxymtttmxErv5LBLSDgU81GqzokSaU8X5bAMMe8GMbruKDMcTB1Qf5LqiAGg4g7IPsuBWMUZ-F0-QGqkAb4NOUEjqzvn13UlxsAWBObRBFHSroODM9Qsa5f0W12kSaLZIv49fVGL07sJ8R-RXolpJJ2RpR0QSyneQrdvRlVTOxw5biRWc81uOfX1r8MJCwuvTRN4o28tIGSWZ9EMB4hBt3NVddTNSCw-RMFywDbUABqrwyz4z7B2aiyiWqxqxfFwmO-y1okcOZ9wBUTKs-tN8o1AD1GSpSRFuEsnKiR7bD6lsKTL-tR8g_Tc5Vx0jh2RiNfojywlYLjw06cXHblEuNEQRmDQJFP_8sRN0CuJ9sSubIXngCgz18oN7WgtAoR2roOE5l2mhf69eCT-Xrp3xuB2BzGDOIfQGU-iz1ZUyQDcVEX3CPFHRBabBX08LM9N_0yUb9-_OveHCAZgY5PnW_HNKmTM4187URba7YuOn0NodHaoBRaYEgIL9asLAQTBa6P5eAfdeQKtGoUwStaKghwPOcFkoQrKtxrWasostl6rUdi7mSKxgmszDR1XmbishB-RbLdWSZR19thg9iE0DU3xE5PMI9iMeXKmoBC8M5S_3ybFQEsVMxOLFSqndfGJPkrswT3oyEFBffFRH921iDdSEtFsMLQrWen413aQBrwADi2_zB82EzSduJGT2PYXWj6de0MjYWkdSRfDsPWkiDjWIDirNfVW85IBNW0Lr9QUfeYRJYu3e_uiuBOgQAXU8Wq8j8JJiWv0vn1k773BxSyVf3b87UYXHOAR2mM6XS2E-NW_5ql8pfdUPIkv6avn0G3dlOqEFVgmyURbJL5-Gbys8GDwa9fayDbocTNZkRlmW4_bcbtZvNtXVBQuwUwH_Yz7ukvbv3JpW_aOk61xZx-IUe1_3bBItsWJjg4bKRF_yCzZm6DKO-xy0]--></g></svg>